<svg width="1417" height="788" viewBox="0 0 1417 788" fill="none" xmlns="http://www.w3.org/2000/svg"><g clip-path="url(#a)"><path fill-rule="evenodd" clip-rule="evenodd" d="M1.191 776.316c-6.055-12.127 11.656-36.12 38.538-83.225 38.277-67.072 230.189-431.45 321.361-605.255 4.764-7.784 8.758-14.511 12.209-20.323 19.337-32.567 21.603-36.385 46.655-36.385h288.545v757.003c-90.442.045-182.478 0-268.256-.043-107.901-.053-205.899-.101-278.364.043-108.937 0-153.164 3.255-160.688-11.815m1253.929 11.815c108.94 0 153.16 3.255 160.69-11.815 6.05-12.127-11.66-36.12-38.54-83.225-38.28-67.072-230.19-431.45-321.36-605.255-4.77-7.784-8.76-14.511-12.21-20.323-19.34-32.567-21.6-36.385-46.656-36.385H708.499v757.003c90.442.045 182.478 0 268.256-.043 107.905-.053 205.895-.101 278.365.043" fill="#00A34F"/><mask id="b" style="mask-type:alpha" maskUnits="userSpaceOnUse" x="0" y="31" width="1417" height="758"><path fill-rule="evenodd" clip-rule="evenodd" d="M1.191 776.316c-6.055-12.127 11.656-36.12 38.538-83.225 38.277-67.072 230.189-431.45 321.361-605.255 4.764-7.784 8.758-14.511 12.209-20.323 19.337-32.567 21.603-36.385 46.655-36.385h288.545v757.003c-90.442.045-182.478 0-268.256-.043-107.901-.053-205.899-.101-278.364.043-108.937 0-153.164 3.255-160.688-11.815m1253.929 11.815c108.94 0 153.16 3.255 160.69-11.815 6.05-12.127-11.66-36.12-38.54-83.225-38.28-67.072-230.19-431.45-321.36-605.255-4.77-7.784-8.76-14.511-12.21-20.323-19.34-32.567-21.6-36.385-46.656-36.385H708.499v757.003c90.442.045 182.478 0 268.256-.043 107.905-.053 205.895-.101 278.365.043" fill="#00A34F"/></mask><g mask="url(#b)" fill="#009B4C"><path d="M-8.5 512h1404v132H-8.5z"/><path d="M-8.5 512h1404v132H-8.5zm109.49-161.743h1185.33v85.878H100.99z"/><path d="M100.99 350.257h1185.33v85.878H100.99zm0-149.492h1185.33v63.614H100.99z"/><path d="M100.99 200.765h1185.33v63.614H100.99zm0-127.228h1185.33v63.614H100.99z"/><path d="M100.99 73.537h1185.33v63.614H100.99z"/></g><path d="M600.887 137.365c21.885 15.105 62.124 25.231 108.143 25.231s86.258-10.126 108.143-25.231z" stroke="#fff" stroke-width="2.12"/><path d="M1267.78 577.942H145.428v3.827H1267.78z" fill="#fff"/><path d="M708.133 587.438c5.068 0 9.177-3.579 9.177-7.994s-4.109-7.994-9.177-7.994-9.176 3.579-9.176 7.994 4.108 7.994 9.176 7.994" fill="#fff"/><path d="M707.969 676.806c93.981 0 170.167-41.534 170.167-92.77s-76.186-92.769-170.167-92.769-170.166 41.534-170.166 92.769 76.186 92.77 170.166 92.77Z" stroke="#fff" stroke-width="3.181"/><path d="M708.408 118.797c3.462 0 6.268-1.447 6.268-3.23 0-1.784-2.806-3.231-6.268-3.231-3.463 0-6.269 1.447-6.269 3.231s2.806 3.23 6.269 3.23" fill="#fff"/><path d="m492.763 137.211 39.302-79.637h354.922l29.994 79.637z" stroke="#fff" stroke-width="2"/><path d="m587.986 97.983 14.207-40.41h211.248l8.337 40.41z" stroke="#fff" stroke-width="2"/><path d="m32.653 796.673 379.152-739.1h598.435l366.71 739.1z" stroke="#fff" stroke-width="2"/><path d="M406.865 67.302c9.691-1.416 17.874-4.775 22.866-9.668h-18.095zm608.045-.126c-9.7-1.416-18.338-4.649-23.329-9.542h18.549z" stroke="#fff" stroke-width="2.12"/><mask id="d" style="mask-type:alpha" maskUnits="userSpaceOnUse" x="393" y="0" width="631" height="46"><path d="M393.051 8.482A8.48 8.48 0 0 1 401.533 0H1015.4c4.69 0 8.49 3.797 8.49 8.482V45.59H393.051z" fill="url(#c)"/></mask><g mask="url(#d)"><path d="M393.051 8.482A8.48 8.48 0 0 1 401.533 0H1015.4c4.69 0 8.49 3.797 8.49 8.482V45.59H393.051z" fill="#1a1a1a" stroke="#C0C0C0" stroke-width="2"/></g><g clip-path="url(#f)" fill="#37003C"><path d="M459.424 11.239c1.027.47 1.686 1.066 1.807 1.156a82 82 0 0 1-.374-2.34c.599.418 1.989 1.383 2.446 1.697.186-.575.831-2.453.831-2.453s1.166 1.89 1.365 2.198c.244-.255 1.638-1.807 1.999-2.2.061.893.143 2.171.163 2.363.071-.095.605-.844 1.5-1.535-.388.765-.573 1.82-.656 2.669a10.3 10.3 0 0 0-2.766-.379 10.2 10.2 0 0 0-5.056 1.334c-.271-.818-.696-1.837-1.259-2.51m14.07 16.122-.81-.898c-.232 2.427-1.418 4.486-3.598 5.922l-.332-1.309c-1.851 1.34-5.027 2.207-7.754.663.338-1.73.638-3.483-.007-5.582-1.51 2.341-2.848 3.258-2.848 3.258-1.02-1.714-.928-5.157-.624-6.17l-1.699.527c0-1.157.833-3.611 2.037-4.989l-1.062-.17a10 10 0 0 1 3.113-3.702h.002c-.396.626-.401 2.168.758 2.755-.493-.863-.552-1.93-.039-2.483.515-.556 1.379-.365 1.931.067-.164-.482-.645-1.088-1.366-1.13h-.001a9.9 9.9 0 0 1 5.451-1.055c.476.191 1.175.862 1.5 1.28 0 0 .023-.493-.25-1.087 1.772.431 2.616 1.153 2.97 1.503.073.765.302 1.225.605 1.954-.574-.644-2.016-1.681-2.704-1.93 0 0-.057.664-.293.984-1.371-.99-2.044-1.239-2.044-1.239-1.506.215-2.473.797-2.998 1.253l.457.39c-.907.28-1.496 1.06-1.496 1.06.006.014.81.13.81.13s-.082.945 1.101 1.538c1.012.507 2.469-.122 3.841.428-.903-1.042-1.525-1.508-1.525-1.508s-.359-.075-.611-.073c-.315.002-.784.065-1.3-.136a5 5 0 0 1-.757-.407s.633-.651 1.557-.795c0 0 .834.235 1.495.724.44-.428.898-.415.898-.415s-.454.425-.317.94c.661.589 1.377 1.433 1.377 1.433.73-.401 2.315-.31 2.641.07-.412-.536-1.008-.983-1.468-1.366-.056-.2-.558-.901-.643-.966 0 0 .478.148.904.53a1.16 1.16 0 0 1 .664-.43c.322.27.378.683.369.753-.145.172-.286.243-.286.243l.772.837.077-.6c1.779 2.544 2.75 5.49 1.501 9.198zm-3.357-5.482-.002-1.315s-.586-.19-1.214-.676c-1.258.19-2.783 1.458-2.783 1.458s.516.979 1.078 2.034c.992.137 2.45-1.114 2.921-1.501m1.266 2.386s-.101-.544-.531-1.053l-.982.024s-1.325 1.14-2.133 1.166c0 0 .445.83.669 1.262.446-.096 1.228-.448 1.543-.815 0 0 .208.673.168 1.466.442-.258 1.053-.953 1.266-2.05m.404-4.324a6.4 6.4 0 0 1-.916.649l.004 1.32c.356.396.706.724.967 1.321.496-.893.402-2.21-.055-3.29" fill="#37003C"/></g><path opacity=".102" d="M645.387 11.375v44.453h126.058l-1.026-44.454z" fill="#000"/><path d="m649.605 13.323 2.887 1.578v3.156l-2.887 1.578-2.888-1.578V14.9zm0-.386-3.209 1.771v3.542l3.209 1.771 3.208-1.77v-3.543z" fill="#CECECE"/><path d="m655.702 13.323 2.888 1.578v3.156l-2.888 1.578-2.887-1.578V14.9zm0-.386-3.208 1.771v3.542l3.208 1.771 3.209-1.77v-3.543z" fill="#CECECE"/><path d="m661.796 13.323 2.888 1.578v3.156l-2.888 1.578-2.887-1.578V14.9zm0-.386-3.208 1.771v3.542l3.208 1.771 3.208-1.77v-3.543z" fill="#CECECE"/><path d="m667.892 13.323 2.887 1.578v3.156l-2.887 1.578-2.888-1.578V14.9zm0-.386-3.208 1.771v3.542l3.208 1.771 3.208-1.77v-3.543z" fill="#CECECE"/><path d="m673.989 13.323 2.888 1.578v3.156l-2.888 1.578-2.887-1.578V14.9zm0-.386-3.208 1.771v3.542l3.208 1.771 3.209-1.77v-3.543z" fill="#CECECE"/><path d="m680.083 13.323 2.888 1.578v3.156l-2.888 1.578-2.887-1.578V14.9zm0-.386-3.208 1.771v3.542l3.208 1.771 3.208-1.77v-3.543z" fill="#CECECE"/><path d="m686.179 13.323 2.887 1.578v3.156l-2.887 1.578-2.887-1.578V14.9zm0-.386-3.208 1.771v3.542l3.208 1.771 3.208-1.77v-3.543z" fill="#CECECE"/><path d="m692.277 13.323 2.887 1.578v3.156l-2.887 1.578-2.888-1.578V14.9zm0-.386-3.209 1.771v3.542l3.209 1.771 3.208-1.77v-3.543z" fill="#CECECE"/><path d="m698.372 13.323 2.888 1.578v3.156l-2.888 1.578-2.887-1.578V14.9zm0-.386-3.208 1.771v3.542l3.208 1.771 3.208-1.77v-3.543z" fill="#CECECE"/><path d="m704.466 13.323 2.887 1.578v3.156l-2.887 1.578-2.887-1.578V14.9zm0-.386-3.208 1.771v3.542l3.208 1.771 3.208-1.77v-3.543z" fill="#CECECE"/><path d="m710.562 13.323 2.887 1.578v3.156l-2.887 1.578-2.888-1.578V14.9zm0-.386-3.208 1.771v3.542l3.208 1.771 3.208-1.77v-3.543z" fill="#CECECE"/><path d="m716.657 13.323 2.888 1.578v3.156l-2.888 1.578-2.887-1.578V14.9zm0-.386-3.208 1.771v3.542l3.208 1.771 3.209-1.77v-3.543z" fill="#CECECE"/><path d="m722.753 13.323 2.888 1.578v3.156l-2.888 1.578-2.887-1.578V14.9zm0-.386-3.208 1.771v3.542l3.208 1.771 3.208-1.77v-3.543z" fill="#CECECE"/><path d="m728.849 13.323 2.887 1.578v3.156l-2.887 1.578-2.888-1.578V14.9zm0-.386-3.208 1.771v3.542l3.208 1.771 3.208-1.77v-3.543z" fill="#CECECE"/><path d="m734.945 13.323 2.887 1.578v3.156l-2.887 1.578-2.888-1.578V14.9zm0-.386-3.209 1.771v3.542l3.209 1.771 3.208-1.77v-3.543z" fill="#CECECE"/><path d="m741.04 13.323 2.888 1.578v3.156l-2.888 1.578-2.887-1.578V14.9zm0-.386-3.208 1.771v3.542l3.208 1.771 3.208-1.77v-3.543z" fill="#CECECE"/><path d="m747.136 13.323 2.887 1.578v3.156l-2.887 1.578-2.887-1.578V14.9zm0-.386-3.208 1.771v3.542l3.208 1.771 3.208-1.77v-3.543z" fill="#CECECE"/><path d="m753.231 13.323 2.887 1.578v3.156l-2.887 1.578-2.888-1.578V14.9zm0-.386-3.209 1.771v3.542l3.209 1.771 3.208-1.77v-3.543z" fill="#CECECE"/><path d="m759.326 13.323 2.888 1.578v3.156l-2.888 1.578-2.887-1.578V14.9zm0-.386-3.208 1.771v3.542l3.208 1.771 3.209-1.77v-3.543z" fill="#CECECE"/><path d="m765.423 13.323 2.887 1.578v3.156l-2.887 1.578-2.887-1.578V14.9zm0-.386-3.208 1.771v3.542l3.208 1.771 3.208-1.77v-3.543zm-112.769 5.539 2.887 1.578v3.155l-2.887 1.578-2.888-1.578v-3.155zm0-.354-3.209 1.77v3.543l3.209 1.77 3.208-1.77v-3.542z" fill="#CECECE"/><path d="m658.749 18.476 2.888 1.578v3.155l-2.888 1.578-2.887-1.578v-3.155zm0-.354-3.208 1.77v3.543l3.208 1.77 3.208-1.77v-3.542z" fill="#CECECE"/><path d="m664.845 18.476 2.887 1.578v3.155l-2.887 1.578-2.887-1.578v-3.155zm0-.354-3.208 1.77v3.543l3.208 1.77 3.208-1.77v-3.542z" fill="#CECECE"/><path d="m670.941 18.476 2.887 1.578v3.155l-2.887 1.578-2.888-1.578v-3.155zm0-.354-3.209 1.77v3.543l3.209 1.77 3.208-1.77v-3.542z" fill="#CECECE"/><path d="m677.036 18.476 2.888 1.578v3.155l-2.888 1.578-2.887-1.578v-3.155zm0-.354-3.208 1.77v3.543l3.208 1.77 3.209-1.77v-3.542z" fill="#CECECE"/><path d="m683.13 18.476 2.887 1.578v3.155l-2.887 1.578-2.887-1.578v-3.155zm0-.354-3.208 1.77v3.543l3.208 1.77 3.208-1.77v-3.542z" fill="#CECECE"/><path d="m689.228 18.476 2.887 1.578v3.155l-2.887 1.578-2.888-1.578v-3.155zm0-.354-3.208 1.77v3.543l3.208 1.77 3.208-1.77v-3.542z" fill="#CECECE"/><path d="m695.323 18.476 2.888 1.578v3.155l-2.888 1.578-2.887-1.578v-3.155zm0-.354-3.208 1.77v3.543l3.208 1.77 3.209-1.77v-3.542z" fill="#CECECE"/><path d="m701.419 18.476 2.888 1.578v3.155l-2.888 1.578-2.887-1.578v-3.155zm0-.354-3.208 1.77v3.543l3.208 1.77 3.208-1.77v-3.542z" fill="#CECECE"/><path d="m707.515 18.476 2.887 1.578v3.155l-2.887 1.578-2.888-1.578v-3.155zm0-.354-3.208 1.77v3.543l3.208 1.77 3.208-1.77v-3.542z" fill="#CECECE"/><path d="m713.611 18.476 2.887 1.578v3.155l-2.887 1.578-2.888-1.578v-3.155zm0-.354-3.209 1.77v3.543l3.209 1.77 3.208-1.77v-3.542z" fill="#CECECE"/><path d="m719.706 18.476 2.888 1.578v3.155l-2.888 1.578-2.887-1.578v-3.155zm0-.354-3.208 1.77v3.543l3.208 1.77 3.208-1.77v-3.542z" fill="#CECECE"/><path d="m725.8 18.476 2.887 1.578v3.155l-2.887 1.578-2.887-1.578v-3.155zm0-.354-3.208 1.77v3.543l3.208 1.77 3.208-1.77v-3.542z" fill="#CECECE"/><path d="m731.898 18.476 2.887 1.578v3.155l-2.887 1.578-2.888-1.578v-3.155zm0-.354-3.209 1.77v3.543l3.209 1.77 3.208-1.77v-3.542z" fill="#CECECE"/><path d="m737.991 18.476 2.888 1.578v3.155l-2.888 1.578-2.887-1.578v-3.155zm0-.354-3.208 1.77v3.543l3.208 1.77 3.209-1.77v-3.542z" fill="#CECECE"/><path d="m744.088 18.476 2.887 1.578v3.155l-2.887 1.578-2.887-1.578v-3.155zm0-.354-3.208 1.77v3.543l3.208 1.77 3.208-1.77v-3.542z" fill="#CECECE"/><path d="m750.184 18.476 2.887 1.578v3.155l-2.887 1.578-2.888-1.578v-3.155zm0-.354-3.208 1.77v3.543l3.208 1.77 3.208-1.77v-3.542z" fill="#CECECE"/><path d="m756.279 18.476 2.887 1.578v3.155l-2.887 1.578-2.888-1.578v-3.155zm0-.354-3.209 1.77v3.543l3.209 1.77 3.208-1.77v-3.542z" fill="#CECECE"/><path d="m762.374 18.476 2.888 1.578v3.155l-2.888 1.578-2.887-1.578v-3.155zm0-.354-3.208 1.77v3.543l3.208 1.77 3.208-1.77v-3.542z" fill="#CECECE"/><path d="m768.471 18.476 2.887 1.578v3.155l-2.887 1.578-2.887-1.578v-3.155zm0-.354-3.208 1.77v3.543l3.208 1.77 3.208-1.77v-3.542zm-118.866 5.57 2.887 1.578v3.156l-2.887 1.577-2.888-1.577V25.27zm0-.354-3.209 1.77v3.543l3.209 1.771 3.208-1.771v-3.542z" fill="#CECECE"/><path d="m655.7 23.692 2.888 1.578v3.156l-2.888 1.577-2.887-1.577V25.27zm0-.354-3.208 1.77v3.543l3.208 1.771 3.209-1.771v-3.542z" fill="#CECECE"/><path d="m661.796 23.692 2.888 1.578v3.156l-2.888 1.577-2.887-1.577V25.27zm0-.354-3.208 1.77v3.543l3.208 1.771 3.208-1.771v-3.542z" fill="#CECECE"/><path d="m667.892 23.692 2.887 1.578v3.156l-2.887 1.577-2.888-1.577V25.27zm0-.354-3.208 1.77v3.543l3.208 1.771 3.208-1.771v-3.542z" fill="#CECECE"/><path d="m673.988 23.692 2.887 1.578v3.156l-2.887 1.577-2.888-1.577V25.27zm0-.354-3.209 1.77v3.543l3.209 1.771 3.208-1.771v-3.542z" fill="#CECECE"/><path d="m680.081 23.692 2.888 1.578v3.156l-2.888 1.577-2.887-1.577V25.27zm0-.354-3.208 1.77v3.543l3.208 1.771 3.208-1.771v-3.542z" fill="#CECECE"/><path d="m686.179 23.692 2.887 1.578v3.156l-2.887 1.577-2.887-1.577V25.27zm0-.354-3.208 1.77v3.543l3.208 1.771 3.208-1.771v-3.542z" fill="#CECECE"/><path d="m692.275 23.692 2.887 1.578v3.156l-2.887 1.577-2.888-1.577V25.27zm0-.354-3.209 1.77v3.543l3.209 1.771 3.208-1.771v-3.542z" fill="#CECECE"/><path d="m698.37 23.692 2.888 1.578v3.156l-2.888 1.577-2.887-1.577V25.27zm0-.354-3.208 1.77v3.543l3.208 1.771 3.209-1.771v-3.542z" fill="#CECECE"/><path d="m704.466 23.692 2.887 1.578v3.156l-2.887 1.577-2.887-1.577V25.27zm0-.354-3.208 1.77v3.543l3.208 1.771 3.208-1.771v-3.542z" fill="#CECECE"/><path d="m710.562 23.692 2.887 1.578v3.156l-2.887 1.577-2.888-1.577V25.27zm0-.354-3.208 1.77v3.543l3.208 1.771 3.208-1.771v-3.542z" fill="#CECECE"/><path d="m716.655 23.692 2.888 1.578v3.156l-2.888 1.577-2.887-1.577V25.27zm0-.354-3.208 1.77v3.543l3.208 1.771 3.209-1.771v-3.542z" fill="#CECECE"/><path d="m722.751 23.692 2.888 1.578v3.156l-2.888 1.577-2.887-1.577V25.27zm0-.354-3.208 1.77v3.543l3.208 1.771 3.208-1.771v-3.542z" fill="#CECECE"/><path d="m728.849 23.692 2.887 1.578v3.156l-2.887 1.577-2.888-1.577V25.27zm0-.354-3.208 1.77v3.543l3.208 1.771 3.208-1.771v-3.542z" fill="#CECECE"/><path d="m734.943 23.692 2.887 1.578v3.156l-2.887 1.577-2.888-1.577V25.27zm0-.354-3.209 1.77v3.543l3.209 1.771 3.208-1.771v-3.542z" fill="#CECECE"/><path d="m741.038 23.692 2.888 1.578v3.156l-2.888 1.577-2.887-1.577V25.27zm0-.354-3.208 1.77v3.543l3.208 1.771 3.209-1.771v-3.542z" fill="#CECECE"/><path d="m747.135 23.692 2.887 1.578v3.156l-2.887 1.577-2.887-1.577V25.27zm0-.354-3.208 1.77v3.543l3.208 1.771 3.208-1.771v-3.542z" fill="#CECECE"/><path d="m753.23 23.692 2.887 1.578v3.156l-2.887 1.577-2.888-1.577V25.27zm0-.354-3.209 1.77v3.543l3.209 1.771 3.208-1.771v-3.542z" fill="#CECECE"/><path d="m759.325 23.692 2.888 1.578v3.156l-2.888 1.577-2.887-1.577V25.27zm0-.354-3.208 1.77v3.543l3.208 1.771 3.209-1.771v-3.542z" fill="#CECECE"/><path d="m765.422 23.692 2.887 1.578v3.156l-2.887 1.577-2.887-1.577V25.27zm0-.354-3.208 1.77v3.543l3.208 1.771 3.208-1.771v-3.542zm-112.768 5.539 2.887 1.578v3.155l-2.887 1.578-2.888-1.578v-3.155zm0-.387-3.209 1.771v3.542l3.209 1.771 3.208-1.77V30.26z" fill="#CECECE"/><path d="m658.749 28.877 2.888 1.578v3.155l-2.888 1.578-2.887-1.578v-3.155zm0-.387-3.208 1.771v3.542l3.208 1.771 3.208-1.77V30.26z" fill="#CECECE"/><path d="m664.845 28.877 2.887 1.578v3.155l-2.887 1.578-2.887-1.578v-3.155zm0-.387-3.208 1.771v3.542l3.208 1.771 3.208-1.77V30.26z" fill="#CECECE"/><path d="m670.941 28.877 2.887 1.578v3.155l-2.887 1.578-2.888-1.578v-3.155zm0-.387-3.209 1.771v3.542l3.209 1.771 3.208-1.77V30.26z" fill="#CECECE"/><path d="m677.036 28.877 2.888 1.578v3.155l-2.888 1.578-2.887-1.578v-3.155zm0-.387-3.208 1.771v3.542l3.208 1.771 3.209-1.77V30.26z" fill="#CECECE"/><path d="m683.13 28.877 2.887 1.578v3.155l-2.887 1.578-2.887-1.578v-3.155zm0-.387-3.208 1.771v3.542l3.208 1.771 3.208-1.77V30.26z" fill="#CECECE"/><path d="m689.228 28.877 2.887 1.578v3.155l-2.887 1.578-2.888-1.578v-3.155zm0-.387-3.208 1.771v3.542l3.208 1.771 3.208-1.77V30.26z" fill="#CECECE"/><path d="m695.323 28.877 2.888 1.578v3.155l-2.888 1.578-2.887-1.578v-3.155zm0-.387-3.208 1.771v3.542l3.208 1.771 3.209-1.77V30.26z" fill="#CECECE"/><path d="m701.419 28.877 2.888 1.578v3.155l-2.888 1.578-2.887-1.578v-3.155zm0-.387-3.208 1.771v3.542l3.208 1.771 3.208-1.77V30.26z" fill="#CECECE"/><path d="m707.515 28.877 2.887 1.578v3.155l-2.887 1.578-2.888-1.578v-3.155zm0-.387-3.208 1.771v3.542l3.208 1.771 3.208-1.77V30.26z" fill="#CECECE"/><path d="m713.611 28.877 2.887 1.578v3.155l-2.887 1.578-2.888-1.578v-3.155zm0-.387-3.209 1.771v3.542l3.209 1.771 3.208-1.77V30.26z" fill="#CECECE"/><path d="m719.706 28.877 2.888 1.578v3.155l-2.888 1.578-2.887-1.578v-3.155zm0-.387-3.208 1.771v3.542l3.208 1.771 3.208-1.77V30.26z" fill="#CECECE"/><path d="m725.8 28.877 2.887 1.578v3.155l-2.887 1.578-2.887-1.578v-3.155zm0-.387-3.208 1.771v3.542l3.208 1.771 3.208-1.77V30.26z" fill="#CECECE"/><path d="m731.898 28.877 2.887 1.578v3.155l-2.887 1.578-2.888-1.578v-3.155zm0-.387-3.209 1.771v3.542l3.209 1.771 3.208-1.77V30.26z" fill="#CECECE"/><path d="m737.991 28.877 2.888 1.578v3.155l-2.888 1.578-2.887-1.578v-3.155zm0-.387-3.208 1.771v3.542l3.208 1.771 3.209-1.77V30.26z" fill="#CECECE"/><path d="m744.088 28.877 2.887 1.578v3.155l-2.887 1.578-2.887-1.578v-3.155zm0-.387-3.208 1.771v3.542l3.208 1.771 3.208-1.77V30.26z" fill="#CECECE"/><path d="m750.184 28.877 2.887 1.578v3.155l-2.887 1.578-2.888-1.578v-3.155zm0-.387-3.208 1.771v3.542l3.208 1.771 3.208-1.77V30.26z" fill="#CECECE"/><path d="m756.279 28.877 2.887 1.578v3.155l-2.887 1.578-2.888-1.578v-3.155zm0-.387-3.209 1.771v3.542l3.209 1.771 3.208-1.77V30.26z" fill="#CECECE"/><path d="m762.374 28.877 2.888 1.578v3.155l-2.888 1.578-2.887-1.578v-3.155zm0-.387-3.208 1.771v3.542l3.208 1.771 3.208-1.77V30.26z" fill="#CECECE"/><path d="m768.471 28.877 2.887 1.578v3.155l-2.887 1.578-2.887-1.578v-3.155zm0-.387-3.208 1.771v3.542l3.208 1.771 3.208-1.77V30.26zm-118.866 5.603 2.887 1.578v3.156l-2.887 1.578-2.888-1.578V35.67zm0-.386-3.209 1.771v3.542l3.209 1.771 3.208-1.77v-3.543z" fill="#CECECE"/><path d="m655.7 34.093 2.888 1.578v3.156l-2.888 1.578-2.887-1.578V35.67zm0-.386-3.208 1.771v3.542l3.208 1.771 3.209-1.77v-3.543z" fill="#CECECE"/><path d="m661.796 34.093 2.888 1.578v3.156l-2.888 1.578-2.887-1.578V35.67zm0-.386-3.208 1.771v3.542l3.208 1.771 3.208-1.77v-3.543z" fill="#CECECE"/><path d="m667.892 34.093 2.887 1.578v3.156l-2.887 1.578-2.888-1.578V35.67zm0-.386-3.208 1.771v3.542l3.208 1.771 3.208-1.77v-3.543z" fill="#CECECE"/><path d="m673.988 34.093 2.887 1.578v3.156l-2.887 1.578-2.888-1.578V35.67zm0-.386-3.209 1.771v3.542l3.209 1.771 3.208-1.77v-3.543z" fill="#CECECE"/><path d="m680.081 34.093 2.888 1.578v3.156l-2.888 1.578-2.887-1.578V35.67zm0-.386-3.208 1.771v3.542l3.208 1.771 3.208-1.77v-3.543z" fill="#CECECE"/><path d="m686.179 34.093 2.887 1.578v3.156l-2.887 1.578-2.887-1.578V35.67zm0-.386-3.208 1.771v3.542l3.208 1.771 3.208-1.77v-3.543z" fill="#CECECE"/><path d="m692.275 34.093 2.887 1.578v3.156l-2.887 1.578-2.888-1.578V35.67zm0-.386-3.209 1.771v3.542l3.209 1.771 3.208-1.77v-3.543z" fill="#CECECE"/><path d="m698.37 34.093 2.888 1.578v3.156l-2.888 1.578-2.887-1.578V35.67zm0-.386-3.208 1.771v3.542l3.208 1.771 3.209-1.77v-3.543z" fill="#CECECE"/><path d="m704.466 34.093 2.887 1.578v3.156l-2.887 1.578-2.887-1.578V35.67zm0-.386-3.208 1.771v3.542l3.208 1.771 3.208-1.77v-3.543z" fill="#CECECE"/><path d="m710.562 34.093 2.887 1.578v3.156l-2.887 1.578-2.888-1.578V35.67zm0-.386-3.208 1.771v3.542l3.208 1.771 3.208-1.77v-3.543z" fill="#CECECE"/><path d="m716.655 34.093 2.888 1.578v3.156l-2.888 1.578-2.887-1.578V35.67zm0-.386-3.208 1.771v3.542l3.208 1.771 3.209-1.77v-3.543z" fill="#CECECE"/><path d="m722.751 34.093 2.888 1.578v3.156l-2.888 1.578-2.887-1.578V35.67zm0-.386-3.208 1.771v3.542l3.208 1.771 3.208-1.77v-3.543z" fill="#CECECE"/><path d="m728.849 34.093 2.887 1.578v3.156l-2.887 1.578-2.888-1.578V35.67zm0-.386-3.208 1.771v3.542l3.208 1.771 3.208-1.77v-3.543z" fill="#CECECE"/><path d="m734.943 34.093 2.887 1.578v3.156l-2.887 1.578-2.888-1.578V35.67zm0-.386-3.209 1.771v3.542l3.209 1.771 3.208-1.77v-3.543z" fill="#CECECE"/><path d="m741.038 34.093 2.888 1.578v3.156l-2.888 1.578-2.887-1.578V35.67zm0-.386-3.208 1.771v3.542l3.208 1.771 3.209-1.77v-3.543z" fill="#CECECE"/><path d="m747.135 34.093 2.887 1.578v3.156l-2.887 1.578-2.887-1.578V35.67zm0-.386-3.208 1.771v3.542l3.208 1.771 3.208-1.77v-3.543z" fill="#CECECE"/><path d="m753.23 34.093 2.887 1.578v3.156l-2.887 1.578-2.888-1.578V35.67zm0-.386-3.209 1.771v3.542l3.209 1.771 3.208-1.77v-3.543z" fill="#CECECE"/><path d="m759.325 34.093 2.888 1.578v3.156l-2.888 1.578-2.887-1.578V35.67zm0-.386-3.208 1.771v3.542l3.208 1.771 3.209-1.77v-3.543z" fill="#CECECE"/><path d="m765.422 34.093 2.887 1.578v3.156l-2.887 1.578-2.887-1.578V35.67zm0-.386-3.208 1.771v3.542l3.208 1.771 3.208-1.77v-3.543zm-112.768 5.538 2.887 1.578v3.156l-2.887 1.578-2.888-1.578v-3.156zm0-.354-3.209 1.771v3.542l3.209 1.771 3.208-1.77v-3.543z" fill="#CECECE"/><path d="m658.749 39.245 2.888 1.578v3.156l-2.888 1.578-2.887-1.578v-3.156zm0-.354-3.208 1.771v3.542l3.208 1.771 3.208-1.77v-3.543z" fill="#CECECE"/><path d="m664.845 39.245 2.887 1.578v3.156l-2.887 1.578-2.887-1.578v-3.156zm0-.354-3.208 1.771v3.542l3.208 1.771 3.208-1.77v-3.543z" fill="#CECECE"/><path d="m670.941 39.245 2.887 1.578v3.156l-2.887 1.578-2.888-1.578v-3.156zm0-.354-3.209 1.771v3.542l3.209 1.771 3.208-1.77v-3.543z" fill="#CECECE"/><path d="m677.036 39.245 2.888 1.578v3.156l-2.888 1.578-2.887-1.578v-3.156zm0-.354-3.208 1.771v3.542l3.208 1.771 3.209-1.77v-3.543z" fill="#CECECE"/><path d="m683.13 39.245 2.887 1.578v3.156l-2.887 1.578-2.887-1.578v-3.156zm0-.354-3.208 1.771v3.542l3.208 1.771 3.208-1.77v-3.543z" fill="#CECECE"/><path d="m689.228 39.245 2.887 1.578v3.156l-2.887 1.578-2.888-1.578v-3.156zm0-.354-3.208 1.771v3.542l3.208 1.771 3.208-1.77v-3.543z" fill="#CECECE"/><path d="m695.323 39.245 2.888 1.578v3.156l-2.888 1.578-2.887-1.578v-3.156zm0-.354-3.208 1.771v3.542l3.208 1.771 3.209-1.77v-3.543z" fill="#CECECE"/><path d="m701.419 39.245 2.888 1.578v3.156l-2.888 1.578-2.887-1.578v-3.156zm0-.354-3.208 1.771v3.542l3.208 1.771 3.208-1.77v-3.543z" fill="#CECECE"/><path d="m707.515 39.245 2.887 1.578v3.156l-2.887 1.578-2.888-1.578v-3.156zm0-.354-3.208 1.771v3.542l3.208 1.771 3.208-1.77v-3.543z" fill="#CECECE"/><path d="m713.611 39.245 2.887 1.578v3.156l-2.887 1.578-2.888-1.578v-3.156zm0-.354-3.209 1.771v3.542l3.209 1.771 3.208-1.77v-3.543z" fill="#CECECE"/><path d="m719.706 39.245 2.888 1.578v3.156l-2.888 1.578-2.887-1.578v-3.156zm0-.354-3.208 1.771v3.542l3.208 1.771 3.208-1.77v-3.543z" fill="#CECECE"/><path d="m725.8 39.245 2.887 1.578v3.156l-2.887 1.578-2.887-1.578v-3.156zm0-.354-3.208 1.771v3.542l3.208 1.771 3.208-1.77v-3.543z" fill="#CECECE"/><path d="m731.898 39.245 2.887 1.578v3.156l-2.887 1.578-2.888-1.578v-3.156zm0-.354-3.209 1.771v3.542l3.209 1.771 3.208-1.77v-3.543z" fill="#CECECE"/><path d="m737.991 39.245 2.888 1.578v3.156l-2.888 1.578-2.887-1.578v-3.156zm0-.354-3.208 1.771v3.542l3.208 1.771 3.209-1.77v-3.543z" fill="#CECECE"/><path d="m744.088 39.245 2.887 1.578v3.156l-2.887 1.578-2.887-1.578v-3.156zm0-.354-3.208 1.771v3.542l3.208 1.771 3.208-1.77v-3.543z" fill="#CECECE"/><path d="m750.184 39.245 2.887 1.578v3.156l-2.887 1.578-2.888-1.578v-3.156zm0-.354-3.208 1.771v3.542l3.208 1.771 3.208-1.77v-3.543z" fill="#CECECE"/><path d="m756.279 39.245 2.887 1.578v3.156l-2.887 1.578-2.888-1.578v-3.156zm0-.354-3.209 1.771v3.542l3.209 1.771 3.208-1.77v-3.543z" fill="#CECECE"/><path d="m762.374 39.245 2.888 1.578v3.156l-2.888 1.578-2.887-1.578v-3.156zm0-.354-3.208 1.771v3.542l3.208 1.771 3.208-1.77v-3.543z" fill="#CECECE"/><path d="m768.471 39.245 2.887 1.578v3.156l-2.887 1.578-2.887-1.578v-3.156zm0-.354-3.208 1.771v3.542l3.208 1.771 3.208-1.77v-3.543zm-118.866 5.571 2.887 1.577v3.156l-2.887 1.578-2.888-1.578v-3.123zm0-.355-3.209 1.772v3.541l3.209 1.771 3.208-1.77v-3.542z" fill="#CECECE"/><path d="m655.7 44.462 2.888 1.577v3.156l-2.888 1.578-2.887-1.578v-3.123zm0-.355-3.208 1.772v3.541l3.208 1.771 3.209-1.77v-3.542z" fill="#CECECE"/><path d="m661.796 44.462 2.888 1.577v3.156l-2.888 1.578-2.887-1.578v-3.123zm0-.355-3.208 1.772v3.541l3.208 1.771 3.208-1.77v-3.542z" fill="#CECECE"/><path d="m667.892 44.462 2.887 1.577v3.156l-2.887 1.578-2.888-1.578v-3.123zm0-.355-3.208 1.772v3.541l3.208 1.771 3.208-1.77v-3.542z" fill="#CECECE"/><path d="m673.988 44.462 2.887 1.577v3.156l-2.887 1.578-2.888-1.578v-3.123zm0-.355-3.209 1.772v3.541l3.209 1.771 3.208-1.77v-3.542z" fill="#CECECE"/><path d="m680.081 44.462 2.888 1.577v3.156l-2.888 1.578-2.887-1.578v-3.123zm0-.355-3.208 1.772v3.541l3.208 1.771 3.208-1.77v-3.542z" fill="#CECECE"/><path d="m686.179 44.462 2.887 1.577v3.156l-2.887 1.578-2.887-1.578v-3.123zm0-.355-3.208 1.772v3.541l3.208 1.771 3.208-1.77v-3.542z" fill="#CECECE"/><path d="m692.275 44.462 2.887 1.577v3.156l-2.887 1.578-2.888-1.578v-3.123zm0-.355-3.209 1.772v3.541l3.209 1.771 3.208-1.77v-3.542z" fill="#CECECE"/><path d="m698.37 44.462 2.888 1.577v3.156l-2.888 1.578-2.887-1.578v-3.123zm0-.355-3.208 1.772v3.541l3.208 1.771 3.209-1.77v-3.542z" fill="#CECECE"/><path d="m704.466 44.462 2.887 1.577v3.156l-2.887 1.578-2.887-1.578v-3.123zm0-.355-3.208 1.772v3.541l3.208 1.771 3.208-1.77v-3.542z" fill="#CECECE"/><path d="m710.562 44.462 2.887 1.577v3.156l-2.887 1.578-2.888-1.578v-3.123zm0-.355-3.208 1.772v3.541l3.208 1.771 3.208-1.77v-3.542z" fill="#CECECE"/><path d="m716.655 44.462 2.888 1.577v3.156l-2.888 1.578-2.887-1.578v-3.123zm0-.355-3.208 1.772v3.541l3.208 1.771 3.209-1.77v-3.542z" fill="#CECECE"/><path d="m722.751 44.462 2.888 1.577v3.156l-2.888 1.578-2.887-1.578v-3.123zm0-.355-3.208 1.772v3.541l3.208 1.771 3.208-1.77v-3.542z" fill="#CECECE"/><path d="m728.849 44.462 2.887 1.577v3.156l-2.887 1.578-2.888-1.578v-3.123zm0-.355-3.208 1.772v3.541l3.208 1.771 3.208-1.77v-3.542z" fill="#CECECE"/><path d="m734.943 44.462 2.887 1.577v3.156l-2.887 1.578-2.888-1.578v-3.123zm0-.355-3.209 1.772v3.541l3.209 1.771 3.208-1.77v-3.542z" fill="#CECECE"/><path d="m741.038 44.462 2.888 1.577v3.156l-2.888 1.578-2.887-1.578v-3.123zm0-.355-3.208 1.772v3.541l3.208 1.771 3.209-1.77v-3.542z" fill="#CECECE"/><path d="m747.135 44.462 2.887 1.577v3.156l-2.887 1.578-2.887-1.578v-3.123zm0-.355-3.208 1.772v3.541l3.208 1.771 3.208-1.77v-3.542z" fill="#CECECE"/><path d="m753.23 44.462 2.887 1.577v3.156l-2.887 1.578-2.888-1.578v-3.123zm0-.355-3.209 1.772v3.541l3.209 1.771 3.208-1.77v-3.542z" fill="#CECECE"/><path d="m759.325 44.462 2.888 1.577v3.156l-2.888 1.578-2.887-1.578v-3.123zm0-.355-3.208 1.772v3.541l3.208 1.771 3.209-1.77v-3.542z" fill="#CECECE"/><path d="m765.422 44.462 2.887 1.577v3.156l-2.887 1.578-2.887-1.578v-3.123zm0-.355-3.208 1.772v3.541l3.208 1.771 3.208-1.77v-3.542zm-112.768 5.538 2.887 1.578v3.156l-2.887 1.578-2.888-1.578v-3.156zm0-.386-3.209 1.77v3.543l3.209 1.77 3.208-1.77V51.03z" fill="#CECECE"/><path d="m658.749 49.645 2.888 1.578v3.156l-2.888 1.578-2.887-1.578v-3.156zm0-.386-3.208 1.77v3.543l3.208 1.77 3.208-1.77V51.03z" fill="#CECECE"/><path d="m664.845 49.645 2.887 1.578v3.156l-2.887 1.578-2.887-1.578v-3.156zm0-.386-3.208 1.77v3.543l3.208 1.77 3.208-1.77V51.03z" fill="#CECECE"/><path d="m670.941 49.645 2.887 1.578v3.156l-2.887 1.578-2.888-1.578v-3.156zm0-.386-3.209 1.77v3.543l3.209 1.77 3.208-1.77V51.03z" fill="#CECECE"/><path d="m677.036 49.645 2.888 1.578v3.156l-2.888 1.578-2.887-1.578v-3.156zm0-.386-3.208 1.77v3.543l3.208 1.77 3.209-1.77V51.03z" fill="#CECECE"/><path d="m683.13 49.645 2.887 1.578v3.156l-2.887 1.578-2.887-1.578v-3.156zm0-.386-3.208 1.77v3.543l3.208 1.77 3.208-1.77V51.03z" fill="#CECECE"/><path d="m689.228 49.645 2.887 1.578v3.156l-2.887 1.578-2.888-1.578v-3.156zm0-.386-3.208 1.77v3.543l3.208 1.77 3.208-1.77V51.03z" fill="#CECECE"/><path d="m695.323 49.645 2.888 1.578v3.156l-2.888 1.578-2.887-1.578v-3.156zm0-.386-3.208 1.77v3.543l3.208 1.77 3.209-1.77V51.03z" fill="#CECECE"/><path d="m701.419 49.645 2.888 1.578v3.156l-2.888 1.578-2.887-1.578v-3.156zm0-.386-3.208 1.77v3.543l3.208 1.77 3.208-1.77V51.03z" fill="#CECECE"/><path d="m707.515 49.645 2.887 1.578v3.156l-2.887 1.578-2.888-1.578v-3.156zm0-.386-3.208 1.77v3.543l3.208 1.77 3.208-1.77V51.03z" fill="#CECECE"/><path d="m713.611 49.645 2.887 1.578v3.156l-2.887 1.578-2.888-1.578v-3.156zm0-.386-3.209 1.77v3.543l3.209 1.77 3.208-1.77V51.03z" fill="#CECECE"/><path d="m719.706 49.645 2.888 1.578v3.156l-2.888 1.578-2.887-1.578v-3.156zm0-.386-3.208 1.77v3.543l3.208 1.77 3.208-1.77V51.03z" fill="#CECECE"/><path d="m725.8 49.645 2.887 1.578v3.156l-2.887 1.578-2.887-1.578v-3.156zm0-.386-3.208 1.77v3.543l3.208 1.77 3.208-1.77V51.03z" fill="#CECECE"/><path d="m731.898 49.645 2.887 1.578v3.156l-2.887 1.578-2.888-1.578v-3.156zm0-.386-3.209 1.77v3.543l3.209 1.77 3.208-1.77V51.03z" fill="#CECECE"/><path d="m737.991 49.645 2.888 1.578v3.156l-2.888 1.578-2.887-1.578v-3.156zm0-.386-3.208 1.77v3.543l3.208 1.77 3.209-1.77V51.03z" fill="#CECECE"/><path d="m744.088 49.645 2.887 1.578v3.156l-2.887 1.578-2.887-1.578v-3.156zm0-.386-3.208 1.77v3.543l3.208 1.77 3.208-1.77V51.03z" fill="#CECECE"/><path d="m750.184 49.645 2.887 1.578v3.156l-2.887 1.578-2.888-1.578v-3.156zm0-.386-3.208 1.77v3.543l3.208 1.77 3.208-1.77V51.03z" fill="#CECECE"/><path d="m756.279 49.645 2.887 1.578v3.156l-2.887 1.578-2.888-1.578v-3.156zm0-.386-3.209 1.77v3.543l3.209 1.77 3.208-1.77V51.03z" fill="#CECECE"/><path d="m762.374 49.645 2.888 1.578v3.156l-2.888 1.578-2.887-1.578v-3.156zm0-.386-3.208 1.77v3.543l3.208 1.77 3.208-1.77V51.03z" fill="#CECECE"/><path d="m768.471 49.645 2.887 1.578v3.156l-2.887 1.578-2.887-1.578v-3.156zm0-.386-3.208 1.77v3.543l3.208 1.77 3.208-1.77V51.03z" fill="#CECECE"/><path d="M646.398 56.49V11.482h124.115v45.01" stroke="#fff" stroke-width="4.241"/></g><defs><clipPath id="a"><rect width="1417" height="788" rx="16.964" fill="#fff"/></clipPath><clipPath id="f"><path fill="#fff" d="M848.001 9.296h110.664v25.445H848.001z"/></clipPath><clipPath id="g"><path fill="#fff" d="M455.717 9.296h110.664v25.445H455.717z"/></clipPath><linearGradient id="c" x1="393.051" y1="22.795" x2="1023.89" y2="22.795" gradientUnits="userSpaceOnUse"><stop stop-color="#00FF87"/><stop offset="1" stop-color="#04F3EA"/></linearGradient><linearGradient id="e" x1="393.051" y1="22.795" x2="1023.89" y2="22.795" gradientUnits="userSpaceOnUse"><stop stop-color="#02EFFF"/><stop offset="1" stop-color="#627BFF"/></linearGradient></defs></svg>